<svg width="96" height="96" viewBox="0 0 96 96" fill="none" xmlns="http://www.w3.org/2000/svg">
  <rect width="96" height="96" rx="48" fill="#E5EDFF"/>
  <circle cx="48" cy="36" r="18" fill="#3775FA" opacity="0.15"/>
  <path d="M48 52c11 0 20 9 20 20v6H28v-6c0-11 9-20 20-20z" fill="#3775FA" opacity="0.35"/>
  <path d="M48 50c7.732 0 14-6.268 14-14S55.732 22 48 22 34 28.268 34 36s6.268 14 14 14z" fill="#3775FA"/>
  <path d="M30 78c0-9.941 8.059-18 18-18h0c9.941 0 18 8.059 18 18" stroke="#3775FA" stroke-width="4" stroke-linecap="round" opacity="0.65"/>
</svg>