<svg width="34" height="33" viewBox="0 0 34 33" fill="none" xmlns="http://www.w3.org/2000/svg">
<path d="M21.2681 1.22465C21.7083 1.60987 22.1749 2.03125 22.4382 2.55952C22.5887 2.82948 22.7579 2.89631 23.0519 2.99503C23.1449 3.02865 23.2378 3.06268 23.3305 3.09712C23.3782 3.11461 23.4259 3.13204 23.475 3.15008C25.101 3.77659 26.4984 4.89145 27.8028 6.01796C27.861 6.06756 27.9192 6.11724 27.9792 6.16835C28.2692 6.41945 28.5309 6.67898 28.7781 6.97228C28.8609 7.06929 28.9462 7.1641 29.0337 7.25692C30.0146 8.29926 30.7432 9.50865 31.439 10.7518C31.4713 10.8083 31.5036 10.8648 31.5369 10.923C31.7937 11.3748 31.9651 11.8358 32.125 12.3297C32.144 12.3881 32.163 12.4463 32.1825 12.5064C33.3591 16.1596 33.4113 20.0427 31.9878 23.6498C31.9715 23.6927 31.9552 23.7355 31.9384 23.7796C31.5861 24.7039 31.1654 25.6381 30.6157 26.4626C30.5478 26.4626 30.4799 26.4626 30.4099 26.4626C30.3649 26.0223 30.3244 25.5818 30.2885 25.1406C30.2758 24.9902 30.2605 24.84 30.2443 24.6899C30.1973 23.9718 30.4854 23.3749 30.7526 22.7243C31.0848 21.8943 31.2754 21.0273 31.439 20.1509C31.4539 20.0738 31.4687 19.9968 31.484 19.9175C32.099 16.259 31.081 12.4452 28.9603 9.44162C28.6663 9.03513 28.3401 8.65807 28.0087 8.28197C27.965 8.23072 27.9213 8.1794 27.8763 8.12658C27.3566 7.51825 26.7845 6.99272 26.1563 6.49821C26.0869 6.44305 26.0176 6.38782 25.9462 6.33101C25.1039 5.6669 24.2134 5.095 23.2748 4.57723C23.2975 4.82627 23.3201 5.07531 23.3434 5.3319C23.4114 5.3319 23.3947 5.39777 23.4647 5.39777C23.4647 5.44305 23.5493 5.42246 23.5493 5.46911C23.6625 5.49175 23.605 5.55228 23.7216 5.5756C23.7216 5.62088 23.8923 5.62828 23.8923 5.67493C23.9318 5.6927 23.9713 5.71047 24.0121 5.72879C24.1789 5.81873 24.3044 5.92164 24.4454 6.04801C24.4915 6.08897 24.5376 6.12986 24.5851 6.17205C24.6281 6.21178 24.6712 6.2515 24.7156 6.29239C24.7537 6.32717 24.7918 6.36189 24.8311 6.3977C25.02 6.60798 25.0049 6.84975 25.0004 7.11999C24.9872 7.28814 24.9588 7.39475 24.8528 7.5273L24.7293 7.61074L24.5783 7.73312C24.5783 7.73312 23.8366 7.78471 23.423 7.66561C23.3756 7.65244 23.3282 7.63927 23.2794 7.62568C23.1634 7.59337 23.0476 7.56044 22.9318 7.5273C22.9329 7.61429 22.9339 7.70129 22.9351 7.79089C22.9668 10.6 22.9973 13.5037 21.2852 15.8973C21.1504 16.028 21.1504 16.028 21.0151 16.1374C20.8389 16.2848 20.6858 16.4287 20.5435 16.6091C20.3934 16.7892 20.3934 16.7892 20.1875 16.8578C20.1521 16.8932 20.1168 16.9285 20.0804 16.965C20.0478 16.9975 20.0153 17.03 19.9817 17.0636C19.9364 17.0636 19.8912 17.0636 19.8445 17.0636C19.8445 17.2221 19.8445 17.3805 19.8445 17.5438C19.8876 17.5541 19.9307 17.5644 19.9751 17.575C20.4868 17.705 20.967 17.8862 21.4534 18.0905C21.58 18.1436 21.707 18.1959 21.834 18.2481C22.4197 18.492 22.9853 18.7627 23.5493 19.0532C23.5535 18.9654 23.5578 18.8777 23.5621 18.7873C23.612 18.3543 23.7632 17.9391 24.0831 17.6325C24.3758 17.4173 24.6105 17.3285 24.9686 17.3337C25.024 17.3344 25.0794 17.335 25.1366 17.3356C25.1999 17.3368 25.1999 17.3368 25.2644 17.338C25.2727 17.2824 25.281 17.2268 25.2896 17.1694C25.3461 16.7966 25.4046 16.4257 25.4788 16.056C25.6351 15.1875 25.4754 14.6898 24.9814 13.9677C24.5897 13.3889 24.5122 12.8856 24.5783 12.1925C24.6409 11.9459 24.7351 11.7316 24.8528 11.5065C24.8819 11.4493 24.911 11.3922 24.9409 11.3334C25.2789 10.7215 25.8089 10.0792 26.4993 9.85991C26.6948 9.87473 26.8084 9.90478 26.9691 10.0172C27.0482 10.1343 27.0482 10.1343 27.0479 10.2707C27.029 10.3497 27.029 10.3497 27.0096 10.4302C26.9885 10.5213 26.9885 10.5213 26.9669 10.6143C26.9273 10.7603 26.8846 10.9055 26.84 11.0501C26.5749 11.8974 26.5749 11.8974 26.6981 12.7572C26.8397 12.9846 27.0211 13.062 27.2773 13.1219C27.5734 13.1665 27.7552 13.1733 28.0344 13.0544C28.5095 12.5907 28.6036 11.9261 28.7495 11.304C28.7662 11.236 28.7829 11.1679 28.8 11.0978C28.8144 11.0362 28.8289 10.9747 28.8437 10.9113C28.9053 10.7385 28.9606 10.6561 29.1064 10.546C29.2773 10.5498 29.2773 10.5498 29.4494 10.6146C29.9987 11.2044 30.1589 11.9403 30.1502 12.7216C30.0987 13.5106 29.8826 14.2013 29.295 14.7439C29.0869 14.9193 28.8734 15.0706 28.6433 15.2155C28.2635 15.462 28.0358 15.7317 27.9272 16.176C27.861 16.5374 27.8142 16.9026 27.7661 17.2667C27.7342 17.4752 27.7342 17.4752 27.6656 17.681C27.7434 17.6881 27.8213 17.6952 27.9015 17.7025C28.2278 17.7422 28.7996 18.0235 28.7996 18.0235L28.8786 18.063L28.956 18.1482C28.956 18.1482 29.201 18.3097 29.3164 18.44C29.3498 18.4762 29.3831 18.5123 29.4175 18.5496C29.7991 19.1591 29.7911 19.8955 29.8442 20.5912C29.8542 20.7161 29.8644 20.841 29.8745 20.966C29.9013 21.295 29.927 21.6242 29.9526 21.9533C29.9782 22.2807 30.0048 22.6081 30.0313 22.9355C30.0771 23.5022 30.121 24.069 30.1637 24.636C30.189 24.9704 30.2162 25.3045 30.2458 25.6385C30.2586 25.7846 30.2708 25.9307 30.2826 26.0769C30.2968 26.2502 30.312 26.4233 30.3287 26.5963C30.3642 27.0564 30.3552 27.3277 30.0669 27.6976C30.0216 27.7202 29.9964 27.7968 29.9497 27.8201C29.9271 27.888 29.8844 27.902 29.861 27.972C29.8158 27.9946 29.7988 28.1129 29.7522 28.1362C29.7295 28.2041 29.6552 28.2464 29.6552 28.2464C29.4794 28.3279 29.4794 28.3279 29.3122 28.3836C29.3304 28.2636 29.3304 28.2636 29.3489 28.1412C29.3836 27.8611 29.3719 27.6036 29.342 27.3221C29.3369 27.2721 29.3318 27.2222 29.3266 27.1707C29.3153 27.0605 29.3039 26.9502 29.2922 26.84C29.2589 26.5255 29.2277 26.2108 29.1966 25.8961C29.1862 25.79 29.1862 25.79 29.1755 25.6816C29.1112 25.0236 29.0556 24.3649 29.0011 23.7061C28.9965 23.6519 28.9921 23.5977 28.9874 23.5419C28.9418 22.9929 28.8967 22.444 28.8523 21.895C28.8354 21.6863 28.8181 21.4776 28.8008 21.2689C28.7928 21.1714 28.7849 21.0739 28.7771 20.9764C28.7213 19.953 28.7213 19.953 28.4203 18.9846C28.2507 18.9138 28.113 18.8712 27.9358 18.8345C27.8631 18.8178 27.8631 18.8178 27.7888 18.8009C27.338 18.7027 26.8837 18.6496 26.4251 18.603C26.1945 18.5772 25.9719 18.5414 25.7447 18.4957C25.4189 18.4319 25.1157 18.4249 24.7842 18.4357C24.7162 18.7074 24.6483 18.9791 24.5783 19.259C24.9962 19.329 25.4141 19.3985 25.8325 19.4648C25.9748 19.4877 26.117 19.5106 26.2592 19.5334C26.3317 19.5447 26.4042 19.556 26.4789 19.5677C26.5487 19.579 26.6184 19.5903 26.6901 19.602C26.7524 19.612 26.8148 19.6218 26.8789 19.6321C27.1055 19.6837 27.2712 19.7394 27.4126 19.9279C27.4776 20.1404 27.45 20.2812 27.3912 20.4939C27.3183 20.6225 27.3183 20.6225 27.1854 20.6997C26.8015 20.716 26.4493 20.68 26.0727 20.6097C26.0217 20.6006 25.9707 20.5914 25.9182 20.582C25.7573 20.5531 25.5966 20.5235 25.4359 20.4939C25.3261 20.474 25.2162 20.4542 25.1063 20.4344C24.8388 20.3861 24.5713 20.3373 24.3039 20.2881C24.2997 20.3294 24.2956 20.3709 24.2913 20.4135C24.2856 20.4684 24.2798 20.5232 24.2739 20.5796C24.2683 20.6338 24.2628 20.6879 24.257 20.7437C24.237 20.8935 24.2064 21.0344 24.1667 21.18C24.27 21.1945 24.27 21.1945 24.3754 21.2092C24.6318 21.2454 24.8882 21.2821 25.1445 21.319C25.2552 21.3349 25.366 21.3506 25.4768 21.3661C25.6365 21.3885 25.796 21.4115 25.9556 21.4346C26.0048 21.4413 26.0541 21.4481 26.1048 21.4551C26.4328 21.5034 26.7237 21.5495 26.971 21.7803C27.0797 21.9977 27.0526 22.1175 26.9796 22.3463C26.8231 22.5029 26.7407 22.5502 26.5178 22.5622C26.447 22.5547 26.3763 22.5472 26.3035 22.5395C26.2244 22.5314 26.1454 22.5233 26.064 22.5149C25.6521 22.4633 25.2416 22.4055 24.8314 22.342C24.747 22.3292 24.6627 22.3164 24.5758 22.3032C24.3708 22.2722 24.1658 22.2407 23.9609 22.2091C23.9609 22.4807 23.9609 22.7524 23.9609 23.0323C24.3904 23.1975 24.7969 23.3329 25.2494 23.4145C25.4448 23.4523 25.6269 23.5118 25.8133 23.5812C25.9003 23.6109 25.9003 23.6109 25.989 23.6412C26.258 23.7653 26.4439 23.8695 26.5698 24.1496C26.6157 24.2775 26.6597 24.4062 26.7022 24.5352C26.8013 24.8291 26.9234 25.1119 27.0447 25.3971C27.3195 26.0591 27.1625 26.8145 27.0165 27.4966C26.9598 27.8051 26.9251 28.1161 26.8902 28.4277C26.8494 28.7813 26.8494 28.7813 26.7737 28.9325C26.7689 29.0725 26.768 29.2127 26.7695 29.3527C26.7704 29.4655 26.7704 29.4655 26.7713 29.5805C26.7725 29.6672 26.7725 29.6672 26.7737 29.7557C26.6293 29.7364 26.485 29.7162 26.3407 29.6957C26.2201 29.679 26.2201 29.679 26.0971 29.662C25.8819 29.6185 25.8819 29.6185 25.676 29.4813C25.7067 28.8928 25.7805 28.3208 25.8808 27.7405C25.9302 27.4478 25.9615 27.1726 25.9505 26.8743C25.8981 26.9408 25.8458 27.0073 25.7919 27.0758C25.6577 27.2462 25.6173 27.2826 25.4016 27.3545C25.2832 27.3628 25.1645 27.3665 25.0457 27.3674C24.9839 27.3684 24.9221 27.3693 24.8584 27.3704C24.6713 27.3564 24.5484 27.3223 24.3739 27.2634C24.235 27.2221 24.235 27.2221 24.0981 27.2173C23.9198 27.3296 23.8169 27.4143 23.6779 27.5647C23.6015 27.6416 23.525 27.7183 23.4485 27.7951C23.4092 27.8355 23.37 27.8759 23.3295 27.9174C23.2044 28.0425 23.075 28.1604 22.9425 28.2775C22.8775 28.3353 22.8775 28.3353 22.8113 28.3943C22.7279 28.4683 22.6442 28.5418 22.5601 28.6148C22.2363 28.9081 22.0545 29.193 22.0246 29.6427C22.0301 29.7538 22.0301 29.7538 22.0357 29.8672C22.0495 30.167 22.0536 30.3835 21.9027 30.6476C21.6098 30.9223 21.3375 31.0764 20.9642 31.2174C20.9141 31.2371 20.8639 31.2568 20.8123 31.2771C20.653 31.3396 20.4932 31.401 20.3333 31.4623C20.1767 31.5231 20.0201 31.5841 19.8637 31.6453C19.7599 31.6859 19.6559 31.7263 19.552 31.7665C19.2935 31.8673 19.0387 31.9726 18.7867 32.0887C18.738 32.111 18.6893 32.1333 18.6392 32.1563C18.5481 32.1984 18.4575 32.2414 18.3674 32.2855C18.0387 32.4378 17.798 32.4581 17.4433 32.4314C17.0839 32.2592 16.8549 31.9713 16.6018 31.6716C16.4922 31.5337 16.4922 31.5337 16.3456 31.4709C16.1479 31.4641 15.9519 31.4613 15.7541 31.4618C15.666 31.4617 15.666 31.4617 15.5762 31.4616C15.4519 31.4616 15.3277 31.4617 15.2034 31.462C15.0131 31.4623 14.8227 31.462 14.6324 31.4615C14.5118 31.4616 14.3911 31.4616 14.2705 31.4618C14.2135 31.4616 14.1564 31.4615 14.0977 31.4614C13.8692 31.4623 13.6824 31.4668 13.4641 31.5395C13.348 31.7079 13.348 31.7079 13.2369 31.9083C12.9223 32.4125 12.9223 32.4125 12.5722 32.5C11.8982 32.6281 11.2782 32.3373 10.6607 32.1015C10.4614 32.0259 10.2616 31.952 10.0614 31.8789C9.88095 31.8128 9.70073 31.7461 9.52057 31.6793C9.43165 31.6463 9.34274 31.6136 9.25376 31.581C9.12773 31.5347 9.00204 31.4874 8.87635 31.4401C8.76713 31.3994 8.76713 31.3994 8.65565 31.3579C8.3756 31.2278 8.17293 31.0744 7.99277 30.8235C7.88437 30.5144 7.87552 30.2272 7.86626 29.9013C7.81789 29.5294 7.63067 29.3212 7.35391 29.0826C7.27096 29.0107 7.27096 29.0107 7.18637 28.9373C7.02926 28.807 6.86873 28.6832 6.7064 28.5595C6.29559 28.2378 5.93884 27.8615 5.57879 27.4851C5.18821 27.0832 4.89149 26.859 4.32048 26.8452C4.21881 26.8446 4.11713 26.8442 4.01546 26.8442C3.65884 26.8349 3.45597 26.7677 3.17318 26.5312C3.05449 26.393 3.05449 26.393 2.95446 26.2397C2.91433 26.1796 2.87419 26.1196 2.83282 26.0577C2.7636 25.9526 2.7636 25.9526 2.69293 25.8452C2.57225 25.666 2.45048 25.4875 2.3285 25.3092C2.29639 25.2623 2.26435 25.2153 2.23135 25.1669C2.01984 24.8594 1.79934 24.5613 1.56951 24.2672C0.848041 23.336 0.848041 23.336 0.880766 22.8327C0.959732 22.4341 1.29522 22.1439 1.56175 21.8545C1.76668 21.6022 1.75262 21.3552 1.73245 21.0427C1.70521 20.9533 1.67488 20.8646 1.64243 20.7769C1.36574 20.0031 1.29988 19.1531 1.22791 18.3397C1.22304 18.2846 1.2181 18.2295 1.21309 18.1728C1.20898 18.1242 1.20493 18.0756 1.20075 18.0254C1.18298 17.8819 1.15958 17.7502 1.11499 17.6124C0.986626 17.5194 0.986627 17.5194 0.827666 17.4495C0.466248 17.2627 0.151207 17.0537 0.0172873 16.6519C0.0106325 16.5398 0.00782043 16.4274 0.00734019 16.315C0.00685994 16.2465 0.00644697 16.1781 0.00596672 16.1075C0.00589812 16.0335 0.00583015 15.9596 0.00576154 15.8833C0.00555572 15.8071 0.00528063 15.7309 0.00507481 15.6523C0.00473178 15.4908 0.00459535 15.3294 0.00459535 15.1679C0.00445814 14.9216 0.00315403 14.6753 0.00185051 14.429C0.00164469 14.272 0.00150714 14.115 0.00150714 13.9581C0.000958294 13.8847 0.000477832 13.8113 -2.41194e-06 13.7356C0.00164414 13.1863 0.0270295 12.7434 0.428925 12.3297C0.74273 12.1254 1.12055 12.1446 1.48347 12.114C1.78568 12.0428 1.88434 11.9538 2.07548 11.7123C2.2013 11.502 2.2013 11.502 2.30702 11.2707C2.34819 11.1853 2.38935 11.0998 2.43058 11.0144C2.45123 10.971 2.47188 10.9275 2.49315 10.8827C2.59311 10.6735 2.69664 10.4662 2.8001 10.2587C2.83907 10.18 2.87796 10.1013 2.91803 10.0202C3.06252 9.73979 3.22209 9.46975 3.38785 9.2015C3.4651 9.03712 3.4651 9.03712 3.4026 8.86512C3.3084 8.6899 3.20789 8.52223 3.10032 8.3549C2.82349 7.89627 2.82349 7.89627 2.83015 7.59591C2.97792 7.11539 3.28405 6.83307 3.63895 6.48833C3.69788 6.42994 3.75681 6.37156 3.81753 6.31139C4.00517 6.12574 4.1937 5.94105 4.38236 5.75643C4.57131 5.57037 4.76004 5.38418 4.94864 5.19777C5.06589 5.08197 5.18341 4.9665 5.30114 4.85117C5.38052 4.77317 5.38052 4.77317 5.46147 4.69359C5.50826 4.64783 5.55498 4.60207 5.60315 4.55486C5.71737 4.44496 5.71737 4.44496 5.78022 4.3028C6.24159 4.17465 6.49269 4.28373 6.90447 4.51322C7.079 4.59383 7.079 4.59383 7.24613 4.53915C7.48344 4.40894 7.70998 4.26569 7.93706 4.11846C9.03504 3.42451 10.2056 2.92533 11.473 2.62812C11.7147 2.56357 11.7999 2.53743 11.977 2.35315C12.0233 2.25909 12.0233 2.25909 12.0706 2.16318C12.6512 1.12729 13.7086 0.618371 14.8155 0.296333C16.8669 -0.240099 19.5414 -0.114481 21.2681 1.22465ZM13.1211 2.45043C12.3613 3.3959 12.2285 4.57833 12.092 5.74354C12.1479 5.72248 12.2038 5.70141 12.2613 5.67973C15.3219 4.53023 18.4021 3.82791 21.6471 4.67403C21.7053 4.68906 21.7634 4.70408 21.8234 4.71952C21.8751 4.73338 21.9269 4.74724 21.9803 4.76151C22.1144 4.79698 22.1144 4.79698 22.2457 4.71444C21.798 3.34293 21.1453 2.27549 19.8453 1.58723C19.3145 1.34951 18.7686 1.24091 18.198 1.14691C18.1481 1.13779 18.0982 1.12873 18.0468 1.11933C16.4468 0.865423 14.252 1.21147 13.1211 2.45043ZM15.4537 5.67493C15.36 5.6975 15.2661 5.7198 15.1723 5.74196C15.0746 5.76535 14.9768 5.78875 14.8791 5.81214C14.8118 5.82799 14.8118 5.82799 14.7431 5.84411C14.4362 5.91965 14.1622 6.02489 13.8758 6.15517C14.6042 6.755 15.2055 6.92583 16.1398 6.84124C16.4596 6.79116 16.7711 6.70608 17.0824 6.61834C17.3206 6.55158 17.5602 6.49011 17.7997 6.4283C17.8465 6.41608 17.8933 6.40394 17.9414 6.39146C19.3338 6.03292 20.7371 5.96911 22.1535 6.22515C22.2334 6.23949 22.2334 6.23949 22.3149 6.25411C22.3613 6.26309 22.4078 6.27201 22.4556 6.28127C22.6061 6.29383 22.7195 6.26769 22.8632 6.22378C22.1788 5.84693 22.1788 5.84693 21.4334 5.63287C21.2852 5.60632 21.2852 5.60632 21.0634 5.53964C19.3264 5.06571 17.1795 5.21945 15.4537 5.67493ZM10.4283 7.14139C10.3648 7.17789 10.3648 7.17789 10.2999 7.21507C9.64886 7.59611 9.00272 8.03561 8.45586 8.5564C8.45586 8.60168 8.40866 8.57178 8.40866 8.61843C8.32963 8.63819 8.37154 8.6705 8.32963 8.6777C8.16867 8.75915 8.08525 8.83679 7.95957 8.97181C7.9005 9.03506 7.9005 9.03506 7.84026 9.09962C7.80006 9.14394 7.75978 9.18826 7.71835 9.23388C7.67705 9.27765 7.63574 9.36094 7.59321 9.40609C7.34897 9.64641 7.36145 9.66699 7.15234 9.94226C7.06178 9.98754 7.10844 10.0191 7.01513 10.0657C7.01513 10.1337 6.84773 10.2477 6.84773 10.3177C6.70942 10.0657 6.78873 10.338 6.84773 10.3177C6.70942 10.4757 6.5779 10.6345 6.45338 10.8505C6.42697 10.8957 6.40049 10.941 6.37318 10.9877C4.92456 13.516 4.11665 16.7708 4.8589 19.6528C4.91125 19.8428 4.96689 20.0314 5.02555 20.2195C5.28749 20.0728 5.50037 19.9041 5.72451 19.7049C7.07811 18.5513 8.78524 17.8737 10.4404 17.2826C10.7112 17.1854 10.9816 17.0872 11.2502 16.984C11.3053 16.9629 11.3603 16.9419 11.417 16.9202C11.5556 16.8674 11.5556 16.8674 11.6118 16.7205C11.6218 16.6171 11.6279 16.5133 11.6321 16.4095C11.6349 16.3448 11.6376 16.2802 11.6404 16.2136C11.6444 16.1082 11.6444 16.1082 11.6485 16.0007C11.6514 15.9283 11.6544 15.8558 11.6574 15.7811C11.6636 15.6272 11.6697 15.4731 11.6756 15.3191C11.6845 15.0859 11.694 14.8527 11.7036 14.6195C11.7095 14.4696 11.7155 14.3197 11.7214 14.1698C11.7256 14.0665 11.7256 14.0665 11.7298 13.9611C11.7478 13.4858 11.752 13.0113 11.749 12.5356C11.6928 12.5103 11.6367 12.4851 11.5788 12.4591C10.6942 12.0548 10.134 11.5199 9.77276 10.6133C9.58951 10.017 9.60632 9.31628 9.8966 8.76221C9.92342 8.70651 9.95018 8.6508 9.97783 8.59338C10.1649 8.2404 10.3329 8.04288 10.677 7.83603C10.933 7.68132 10.933 7.68132 11.0383 7.41396C11.0372 7.24073 11.0251 7.08013 10.9943 6.90984C10.7772 6.90984 10.6122 7.03567 10.4283 7.14139ZM17.5915 7.55948C17.1994 7.65827 16.8061 7.74677 16.4099 7.82745C16.3557 7.83898 16.3015 7.85044 16.2456 7.86231C15.2042 8.0708 14.4746 7.79397 13.6013 7.25288C13.6 7.29953 13.5986 7.34618 13.5972 7.39421C13.5906 7.60874 13.5831 7.82313 13.5756 8.03759C13.5735 8.11094 13.5714 8.18428 13.5692 8.25988C13.5278 9.38832 13.5278 9.38832 13.2412 9.66699C12.9806 9.74397 12.8811 9.71296 12.6408 9.58549C12.4878 9.43696 12.3581 9.27498 12.2292 9.10525C12.0366 8.83391 12.0366 8.83391 11.749 8.69361C11.4477 8.66013 11.3189 8.65457 11.0758 8.84372C10.7713 9.23512 10.7416 9.58076 10.7885 10.0657C10.8835 10.4985 11.0355 10.9394 11.4172 11.1938C11.8039 11.4038 12.1343 11.4853 12.5722 11.5065C12.6126 11.6275 12.6126 11.6275 12.6537 11.7509C12.673 11.8078 12.6923 11.8646 12.7121 11.9232C12.7584 12.0642 12.8021 12.2059 12.844 12.3483C13.3253 13.9237 14.1876 15.2367 15.6252 16.0903C15.9442 16.2576 16.2719 16.3577 16.62 16.4461C16.6701 16.4603 16.7201 16.4745 16.7717 16.489C17.6403 16.7148 18.5562 16.5997 19.3514 16.1888C20.5183 15.4978 21.143 14.283 21.4822 13.0043C21.8086 11.6695 21.9153 10.3267 21.9116 8.95692C21.9113 8.79028 21.9116 8.6237 21.9121 8.45712C21.912 8.35003 21.912 8.243 21.9118 8.13591C21.912 8.06209 21.912 8.06209 21.9122 7.98669C21.9111 7.73353 21.8944 7.4991 21.8341 7.25288C21.6612 7.22962 21.4883 7.20684 21.3153 7.18427C21.2669 7.17775 21.2186 7.17117 21.1688 7.16444C19.9532 7.00761 18.7654 7.26372 17.5915 7.55948ZM12.7095 14.6624C12.6776 15.0061 12.6494 15.3499 12.6245 15.6941C12.6155 15.8108 12.6056 15.9273 12.5946 16.0438C12.4992 17.0706 12.6846 17.6459 13.2797 18.4957C13.9455 19.2916 14.8491 19.7164 15.8653 19.8764C16.8118 19.9501 17.6829 19.8129 18.4724 19.259C18.6853 19.0147 18.7558 18.8101 18.7535 18.4885C18.7533 18.4334 18.7531 18.3784 18.7528 18.3217C18.7523 18.2645 18.7517 18.2073 18.7511 18.1484C18.7508 18.0905 18.7504 18.0325 18.7502 17.9727C18.7493 17.8298 18.7481 17.6868 18.7468 17.5438C18.6259 17.5603 18.6259 17.5603 18.5026 17.5771C17.0828 17.753 15.6637 17.4397 14.5133 16.5745C13.8461 16.03 13.1684 15.4431 12.7781 14.6624C12.7554 14.6624 12.7328 14.6624 12.7095 14.6624ZM11.1915 18.0798C11.1163 18.1029 11.0412 18.126 10.9638 18.1498C9.80981 18.5289 8.71012 19.0459 7.63259 19.602L7.5788 19.6635L7.38121 19.8611L7.28956 19.945L7.18363 20.0191L7.08374 20.0823L6.88725 20.1772L6.72918 20.276C6.69083 20.2925 6.66394 20.3211 6.62442 20.3382C6.43321 20.4435 6.29181 20.5729 6.13182 20.7212C5.88244 20.9499 5.63079 21.1719 5.36858 21.3858C5.63951 22.3172 6.09327 23.2801 6.6721 24.0614L6.76869 24.1685L6.86749 24.3068L7.08374 24.6103L7.14411 24.7019L7.26266 24.8403L7.46025 25.0576L7.63259 25.2963C7.74853 25.4274 7.74853 25.4274 7.89844 25.5494C7.97246 25.6134 7.97246 25.6134 8.048 25.6787L8.19131 25.7887L8.36585 25.9052L8.66552 26.2036L8.7989 26.3254L8.92238 26.4209L9.07332 26.5312C9.22151 26.6344 9.36805 26.7275 9.52351 26.8186C9.56996 26.8459 9.61641 26.8733 9.66423 26.9016C10.7929 27.5563 11.9682 27.976 13.2583 28.1778C13.3137 28.1869 13.369 28.196 13.426 28.2054C15.2309 28.4559 18.6782 27.1487 18.6782 27.1487L18.7861 27.0693L18.8652 27.01C18.8652 27.01 19.2732 26.7919 19.4886 26.6385C19.5501 26.5965 19.5501 26.5965 19.6128 26.5536C19.7158 26.4815 19.8149 26.4038 19.9131 26.3254L19.9914 26.2394L20.0507 26.1604C20.0507 26.1604 20.3145 25.9386 20.4496 25.7999C20.4976 25.7511 20.5457 25.7023 20.5951 25.6521C20.6693 25.5758 20.6693 25.5758 20.745 25.4979C20.8436 25.3968 20.9424 25.296 21.0413 25.1953C21.0849 25.1505 21.1284 25.1058 21.1733 25.0597C21.2852 24.9533 21.2852 24.9533 21.4225 24.8847C21.4423 24.8409 21.462 24.7969 21.4825 24.7518C21.5796 24.5738 21.6428 24.5368 21.8341 24.4731C22.1124 24.437 22.216 24.4515 22.4467 24.6188C22.5151 24.6835 22.5825 24.7493 22.6488 24.8161C22.6842 24.8501 22.7196 24.8841 22.756 24.9192C22.8614 25.021 22.9653 25.1242 23.069 25.2277C23.1268 25.2846 23.1847 25.3415 23.2443 25.4001C23.3699 25.5246 23.4944 25.6499 23.6179 25.7766C23.7864 25.6081 23.784 25.5288 23.8135 25.2958C23.8223 25.2281 23.8312 25.1605 23.8403 25.0908C23.849 25.02 23.8576 24.9491 23.8666 24.8761C23.8758 24.8048 23.8849 24.7334 23.8944 24.6599C23.9171 24.4833 23.9392 24.3067 23.9609 24.13C23.9117 24.1079 23.8626 24.0858 23.8119 24.0631C23.4229 23.8854 23.1716 23.7313 22.9318 23.3754C22.7454 22.8162 22.8172 22.1841 23.069 21.6602C23.0916 21.6149 23.1143 21.5696 23.1376 21.523C23.1397 21.3245 23.133 21.127 23.1266 20.9286C23.1399 20.6524 23.2012 20.4171 23.2748 20.1509C22.4164 19.6583 21.516 19.2854 20.5992 18.9159C20.5339 18.8891 20.4686 18.8623 20.4013 18.8346C20.3397 18.8095 20.2781 18.7843 20.2146 18.7584C20.1598 18.7359 20.1049 18.7134 20.0484 18.6901C19.9155 18.6338 19.9155 18.6338 19.7759 18.6415C19.7658 18.7063 19.7658 18.7063 19.7555 18.7723C19.6627 19.3038 19.5524 19.749 19.1156 20.0952C18.6123 20.4378 18.1127 20.6674 17.5119 20.7683C17.2634 20.8136 17.2634 20.8136 17.0317 20.9055C16.8365 20.9123 16.6435 20.9151 16.4485 20.9141C16.3946 20.9144 16.3408 20.9147 16.2853 20.9149C15.8827 20.9142 15.8827 20.9142 15.7281 20.8369C15.6433 20.8313 15.5583 20.8256 15.4709 20.8198C14.2585 20.6931 13.235 20.0003 12.4433 19.1148C12.1629 18.759 11.9569 18.3565 11.749 17.9555C11.5498 17.9555 11.3816 18.021 11.1915 18.0798ZM26.0191 26.6685C26.0877 26.8057 26.0877 26.8057 26.0877 26.8057L26.0191 26.6685ZM14.4246 1.62716C14.5618 1.69576 14.5618 1.69576 14.5618 1.69576L14.4246 1.62716ZM19.6387 1.62716C19.7759 1.69576 19.7759 1.69576 19.7759 1.69576L19.6387 1.62716ZM14.2874 1.69576C14.4246 1.76437 14.4246 1.76437 14.4246 1.76437L14.2874 1.69576ZM23.9609 3.27371C24.0981 3.34232 24.0981 3.34232 24.0981 3.34232L23.9609 3.27371ZM6.32907 4.16559C6.46628 4.2342 6.46628 4.2342 6.46628 4.2342L6.32907 4.16559ZM17.5805 4.16559C17.7177 4.2342 17.7177 4.2342 17.7177 4.2342L17.5805 4.16559ZM19.4329 4.16559C19.5701 4.2342 19.5701 4.2342 19.5701 4.2342L19.4329 4.16559ZM6.53489 4.2342C6.6721 4.3028 6.6721 4.3028 6.6721 4.3028L6.53489 4.2342ZM6.6721 4.3028C6.80931 4.37141 6.80931 4.37141 6.80931 4.37141L6.6721 4.3028ZM6.80931 4.37141C6.94653 4.44002 6.94653 4.44002 6.94653 4.44002L6.80931 4.37141ZM6.94653 4.44002C7.08374 4.50862 7.08374 4.50862 7.08374 4.50862L6.94653 4.44002ZM7.08374 4.50862C7.22095 4.57723 7.22095 4.57723 7.22095 4.57723L7.08374 4.50862ZM21.6283 4.50862C21.7655 4.57723 21.7655 4.57723 21.7655 4.57723L21.6283 4.50862ZM12.2978 4.64584C12.435 4.71444 12.435 4.71444 12.435 4.71444L12.2978 4.64584ZM14.356 6.36099C14.4932 6.4296 14.4932 6.4296 14.4932 6.4296L14.356 6.36099ZM16.8944 6.49821C17.0317 6.56681 17.0317 6.56681 17.0317 6.56681L16.8944 6.49821ZM14.699 6.56681C14.8363 6.63542 14.8363 6.63542 14.8363 6.63542L14.699 6.56681ZM16.62 6.56681C16.7572 6.63542 16.7572 6.63542 16.7572 6.63542L16.62 6.56681ZM24.99 7.25288C25.1272 7.32148 25.1272 7.32148 25.1272 7.32148L24.99 7.25288ZM24.9214 7.39009C25.0586 7.45869 25.0586 7.45869 25.0586 7.45869L24.9214 7.39009ZM14.013 7.66451C14.1502 7.73312 14.1502 7.73312 14.1502 7.73312L14.013 7.66451ZM14.1502 7.73312C14.2874 7.80173 14.2874 7.80173 14.2874 7.80173L14.1502 7.73312ZM17.1689 7.73312C17.3061 7.80173 17.3061 7.80173 17.3061 7.80173L17.1689 7.73312ZM14.2874 7.80173C14.4246 7.87033 14.4246 7.87033 14.4246 7.87033L14.2874 7.80173ZM14.4246 7.87033C14.5618 7.93894 14.5618 7.93894 14.5618 7.93894L14.4246 7.87033ZM16.62 7.87033C16.7572 7.93894 16.7572 7.93894 16.7572 7.93894L16.62 7.87033ZM9.9652 8.21336C9.9652 8.41918 9.9652 8.41918 9.9652 8.41918V8.21336ZM28.9692 10.4774C29.1064 10.546 29.1064 10.546 29.1064 10.546L28.9692 10.4774ZM2.2813 11.0262C2.2813 11.232 2.2813 11.232 2.2813 11.232V11.0262ZM1.59523 11.9867C1.73245 12.0553 1.73245 12.0553 1.73245 12.0553L1.59523 11.9867ZM29.175 14.8682C29.3122 14.9368 29.3122 14.9368 29.3122 14.9368L29.175 14.8682ZM16.8944 16.3775C17.0317 16.4461 17.0317 16.4461 17.0317 16.4461L16.8944 16.3775ZM24.3039 17.338C24.4411 17.4066 24.4411 17.4066 24.4411 17.4066L24.3039 17.338ZM9.55357 17.4066C9.69078 17.4752 9.69078 17.4752 9.69078 17.4752L9.55357 17.4066ZM9.41635 17.4752C9.55357 17.5438 9.55357 17.5438 9.55357 17.5438L9.41635 17.4752ZM19.9817 17.4752C20.1189 17.5438 20.1189 17.5438 20.1189 17.5438L19.9817 17.4752ZM16.5514 17.6124C16.6886 17.681 16.6886 17.681 16.6886 17.681L16.5514 17.6124ZM8.8675 17.681C9.00471 17.7496 9.00471 17.7496 9.00471 17.7496L8.8675 17.681ZM17.0317 17.681C17.1689 17.7496 17.1689 17.7496 17.1689 17.7496L17.0317 17.681ZM14.0816 19.0532C14.2188 19.1218 14.2188 19.1218 14.2188 19.1218L14.0816 19.0532ZM14.2874 19.1904C14.4246 19.259 14.4246 19.259 14.4246 19.259L14.2874 19.1904ZM24.7842 19.1904C24.9214 19.259 24.9214 19.259 24.9214 19.259L24.7842 19.1904ZM14.4246 19.259C14.5618 19.3276 14.5618 19.3276 14.5618 19.3276L14.4246 19.259ZM14.5618 19.3276C14.699 19.3962 14.699 19.3962 14.699 19.3962L14.5618 19.3276ZM14.699 19.3962C14.8363 19.4648 14.8363 19.4648 14.8363 19.4648L14.699 19.3962ZM14.8363 19.4648C14.9735 19.5334 14.9735 19.5334 14.9735 19.5334L14.8363 19.4648ZM27.0482 19.602C27.1854 19.6706 27.1854 19.6706 27.1854 19.6706L27.0482 19.602ZM27.1854 19.6706C27.3226 19.7392 27.3226 19.7392 27.3226 19.7392L27.1854 19.6706ZM16.7572 19.7392C16.8944 19.8078 16.8944 19.8078 16.8944 19.8078L16.7572 19.7392ZM27.3226 19.7392C27.4598 19.8078 27.4598 19.8078 27.4598 19.8078L27.3226 19.7392ZM5.02555 20.0136C5.16276 20.0823 5.16276 20.0823 5.16276 20.0823L5.02555 20.0136ZM24.5783 20.3567C24.7156 20.4253 24.7156 20.4253 24.7156 20.4253L24.5783 20.3567ZM1.45802 21.7974C1.45802 22.0032 1.45802 22.0032 1.45802 22.0032V21.7974ZM24.3039 22.2777C24.4411 22.3463 24.4411 22.3463 24.4411 22.3463L24.3039 22.2777ZM26.8424 22.4835C26.9796 22.5521 26.9796 22.5521 26.9796 22.5521L26.8424 22.4835ZM26.7051 22.5521C26.8424 22.6207 26.8424 22.6207 26.8424 22.6207L26.7051 22.5521ZM22.2457 24.3358C22.3829 24.4045 22.3829 24.4045 22.3829 24.4045L22.2457 24.3358ZM30.7529 26.2568C30.7529 26.4626 30.7529 26.4626 30.7529 26.4626V26.2568ZM24.2353 27.2859C24.3725 27.3545 24.3725 27.3545 24.3725 27.3545L24.2353 27.2859ZM16.6886 27.7662C16.8258 27.8348 16.8258 27.8348 16.8258 27.8348L16.6886 27.7662ZM12.1606 27.8348C12.2978 27.9034 12.2978 27.9034 12.2978 27.9034L12.1606 27.8348ZM13.5327 31.5395C13.5327 31.7453 13.5327 31.7453 13.5327 31.7453V31.5395ZM13.3269 31.8825C13.3269 32.0884 13.3269 32.0884 13.3269 32.0884V31.8825ZM17.0317 32.2942C17.1689 32.3628 17.1689 32.3628 17.1689 32.3628L17.0317 32.2942ZM17.1689 32.3628C17.3061 32.4314 17.3061 32.4314 17.3061 32.4314L17.1689 32.3628ZM11.4745 32.4314C11.6118 32.5 11.6118 32.5 11.6118 32.5L11.4745 32.4314ZM11.6804 32.5C11.8176 32.5686 11.8176 32.5686 11.8176 32.5686L11.6804 32.5Z" fill="#3A70E5"/>
<path d="M19.0941 9.38008C19.2999 9.44444 19.2999 9.44444 19.4078 9.59667C19.571 9.91466 19.6593 10.2514 19.7587 10.5936C19.7807 10.6654 19.8026 10.7372 19.8253 10.8111C19.9685 11.2997 20.0835 11.7587 19.9173 12.2573C19.5357 12.6057 19.305 12.6816 18.7939 12.6946C18.7043 12.698 18.6146 12.7013 18.5222 12.7048C18.2123 12.6606 18.1146 12.5721 17.9278 12.3259C17.9235 12.1114 17.9235 12.1114 17.9964 11.9143C18.154 11.7602 18.2416 11.7115 18.4627 11.6883C18.5295 11.6907 18.5964 11.6931 18.6653 11.6955C18.7329 11.6974 18.8004 11.6993 18.87 11.7012C18.9213 11.7036 18.9726 11.706 19.0255 11.7084C19.0072 11.6363 18.989 11.5642 18.9702 11.49C18.9077 11.2421 18.8461 10.9938 18.7848 10.7456C18.7574 10.6359 18.7287 10.5265 18.6999 10.4172C18.6184 10.095 18.5967 9.83632 18.6824 9.51304C18.8883 9.37583 18.8883 9.37583 19.0941 9.38008ZM19.5057 12.6003C19.6429 12.6689 19.6429 12.6689 19.6429 12.6689L19.5057 12.6003ZM19.2999 12.6689C19.4371 12.7375 19.4371 12.7375 19.4371 12.7375L19.2999 12.6689Z" fill="#3F6DCF"/>
<path d="M16.8985 12.7376C17.0502 12.8295 17.0502 12.8295 17.1987 12.9391C17.7155 13.293 18.2048 13.3265 18.8195 13.2864C18.8648 13.2638 18.91 13.2411 18.9567 13.2178C19.1172 13.3281 19.243 13.4152 19.3683 13.5608C19.407 13.8101 19.4258 13.959 19.2783 14.1697C18.8827 14.4334 18.2493 14.3546 17.7904 14.3155C17.1967 14.1906 16.6698 13.8809 16.2425 13.4537C16.1286 13.2605 16.1033 13.1635 16.1438 12.9434C16.3531 12.6644 16.5775 12.6449 16.8985 12.7376ZM16.8985 12.6689C17.0357 12.7376 17.0357 12.7376 17.0357 12.7376L16.8985 12.6689ZM17.1729 12.8748C17.3101 12.9434 17.3101 12.9434 17.3101 12.9434L17.1729 12.8748Z" fill="#3E6BCC"/>
<path d="M16.9028 8.24399C17.2013 8.39651 17.3421 8.57996 17.4474 8.89575C17.4569 9.15941 17.4596 9.39775 17.3788 9.65042L17.2843 9.76074L17.225 9.82002L16.9671 10.0621C16.7117 10.0954 16.5901 10.0826 16.3668 9.95058C16.1517 9.72363 16.0749 9.53935 16.0754 9.22431C16.1 8.9103 16.1443 8.66483 16.3497 8.41551C16.5555 8.24297 16.6349 8.20022 16.9028 8.24399ZM17.4474 9.376C17.5846 9.44461 17.5846 9.44461 17.5846 9.44461L17.4474 9.376Z" fill="#3B66C4"/>
<path d="M20.6035 8.34702C20.8611 8.5588 20.9902 8.71495 21.0363 9.04913C21.053 9.37529 21.0427 9.5999 20.8394 9.86493C20.6688 10.0347 20.6052 10.0618 20.3591 10.1136C20.0638 10.0492 19.9643 9.95583 19.7802 9.71914C19.6154 9.44945 19.6315 9.21022 19.6741 8.90657C19.7285 8.69197 19.8263 8.56594 19.986 8.41562C20.2168 8.33871 20.3617 8.318 20.6035 8.34702Z" fill="#3D67C2"/>
</svg>
